<?xml version="1.0" encoding="utf-8"?><svg viewBox="0 0 32 32" xmlns="http://www.w3.org/2000/svg" xmlns:xlink="http://www.w3.org/1999/xlink"><style>:root>svg{display:none}:root>svg:target{display:block}</style><svg fill="none" viewBox="0 0 8 5" id="arrow-down" xmlns="http://www.w3.org/2000/svg"><path d="M1.61 1.4l2.055 2.055a.5.5 0 00.705 0l2-2" stroke="#6A983C" stroke-width="1.5" stroke-linecap="round" stroke-linejoin="bevel"/></svg><svg fill="none" viewBox="0 0 7 5" id="arrow-down-black" xmlns="http://www.w3.org/2000/svg"><path d="M1.11 1.4l2.054 2.055a.5.5 0 00.705 0l2-2" stroke="#151515" stroke-width="1.5" stroke-linecap="round" stroke-linejoin="bevel"/></svg><svg fill="none" viewBox="0 0 9 7" id="arrow-down-white" xmlns="http://www.w3.org/2000/svg"><path d="M1.313 2.033l2.74 2.74a.667.667 0 00.94 0L7.66 2.107" stroke="#fff" stroke-width="2.5" stroke-linecap="round" stroke-linejoin="bevel"/></svg><svg fill="none" viewBox="0 0 7 9" id="arrow-right" xmlns="http://www.w3.org/2000/svg"><path d="M2.033 7.687l2.74-2.74a.667.667 0 000-.94L2.107 1.34" stroke="#6A983C" stroke-width="2.5" stroke-linecap="round" stroke-linejoin="bevel"/></svg><svg fill="none" viewBox="0 0 7 10" id="arrow-right-black" xmlns="http://www.w3.org/2000/svg"><path d="M2.033 8.187l2.74-2.74a.667.667 0 000-.94L2.107 1.84" stroke="#151515" stroke-width="2.5" stroke-linecap="round" stroke-linejoin="bevel"/></svg><svg fill="none" viewBox="0 0 10 16" id="arrow-right-white" xmlns="http://www.w3.org/2000/svg"><path d="M2.066 14.373l5.48-5.48a1.333 1.333 0 000-1.88L2.213 1.68" stroke="#fff" stroke-width="2.5" stroke-linecap="round" stroke-linejoin="bevel"/></svg><svg fill="none" viewBox="0 0 16 17" id="back" xmlns="http://www.w3.org/2000/svg"><path d="M4 4.5h6.667A1.333 1.333 0 0112 5.833V14.5" stroke="#151515" stroke-width="2.5" stroke-linecap="round" stroke-linejoin="round"/><path d="M5.332 6.5L3.426 4.56a.127.127 0 010-.187L5.332 2.5" stroke="#151515" stroke-width="2.5" stroke-linecap="round" stroke-linejoin="round"/></svg><svg fill="none" viewBox="0 0 14 10" id="checkbox-icon" xmlns="http://www.w3.org/2000/svg"><path d="M1.56 5.85l3.06 3.06 7.82-7.82" stroke="#FDFDFD" stroke-width="1.5" stroke-linecap="round" stroke-linejoin="round"/></svg><svg fill="none" viewBox="0 0 12 12" id="compare" xmlns="http://www.w3.org/2000/svg"><path d="M4.75 1h-2a1 1 0 00-1 1v2a1 1 0 001 1h2a1 1 0 001-1V2a1 1 0 00-1-1zM4.75 7h-2a1 1 0 00-1 1v2a1 1 0 001 1h2a1 1 0 001-1V8a1 1 0 00-1-1zM10.25 8h-3M9.25 10h-2M9.25 4h-2M10.25 2h-3" stroke="#E6704B" stroke-linecap="round" stroke-linejoin="bevel"/></svg><svg fill="none" viewBox="0 0 16 16" id="cross" xmlns="http://www.w3.org/2000/svg"><path d="M14.36 14.36L1.64 1.64M14.36 1.64L1.64 14.36" stroke="#151515" stroke-width="2.5" stroke-linecap="round" stroke-linejoin="bevel"/></svg><svg fill="none" viewBox="0 0 16 16" id="facebook" xmlns="http://www.w3.org/2000/svg"><path fill-rule="evenodd" clip-rule="evenodd" d="M8.546 16H.883A.883.883 0 010 15.117V.883C0 .395.395 0 .883 0h14.234c.488 0 .883.395.883.883v14.234a.883.883 0 01-.883.883H11.04V9.804h2.08l.31-2.415h-2.39V5.848c0-.7.194-1.176 1.196-1.176h1.28v-2.16c-.222-.03-.981-.095-1.864-.095-1.844 0-3.106 1.125-3.106 3.191V7.39H6.461v2.415h2.085V16z" fill="#151515"/></svg><svg fill="none" viewBox="0 0 16 16" id="grid-icon" xmlns="http://www.w3.org/2000/svg"><path d="M13.333 1.333H2.666c-.736 0-1.333.597-1.333 1.334v10.666c0 .737.597 1.334 1.333 1.334h10.667c.736 0 1.333-.597 1.333-1.334V2.667c0-.737-.597-1.334-1.333-1.334zM1.333 8h13.333M8 1.333v13.334" stroke="#6A983C" stroke-linecap="round" stroke-linejoin="round"/></svg><svg fill="none" viewBox="0 0 17 14" id="heart" xmlns="http://www.w3.org/2000/svg"><path clip-rule="evenodd" d="M9.003 2.26a3.394 3.394 0 114.8 4.8l-.874.873-4.8 4.8-4.8-4.8-.873-.873a3.394 3.394 0 114.8-4.8l.873.873.874-.873z" stroke="#151515" stroke-width="2.5" stroke-linecap="round" stroke-linejoin="round"/></svg><svg fill="none" viewBox="0 0 24 24" id="ic-actions-user" xmlns="http://www.w3.org/2000/svg"><path d="M3 22l.79-2.88c2.61-9.5 13.81-9.5 16.42 0L21 22" stroke="#151515" stroke-width="2.5" stroke-linecap="round" stroke-linejoin="round"/><path d="M12 11.98a5 5 0 100-10 5 5 0 000 10z" stroke="#151515" stroke-width="2.5" stroke-linecap="round" stroke-linejoin="bevel"/></svg><svg fill="none" viewBox="0 0 24 24" id="ic-ecommerce-basket" xmlns="http://www.w3.org/2000/svg"><path d="M17.89 20.85H6.11a1.42 1.42 0 01-1.38-1.08L2.08 9.16a.7.7 0 01.68-.87h18.48a.7.7 0 01.68.87l-2.65 10.61a1.42 1.42 0 01-1.38 1.08v0zM9.8 3.15L6.9 8.29M13.88 3.15l2.91 5.14" stroke="#151515" stroke-width="2.5" stroke-linecap="round" stroke-linejoin="round"/></svg><svg fill="none" viewBox="0 0 14 14" id="linkedin" xmlns="http://www.w3.org/2000/svg"><path fill-rule="evenodd" clip-rule="evenodd" d="M14 14h-3.043V9.017c0-1.305-.476-2.195-1.523-2.195-.8 0-1.246.6-1.453 1.18-.078.208-.066.497-.066.787V14H4.9s.039-8.827 0-9.63h3.015v1.512c.178-.661 1.142-1.604 2.679-1.604C12.501 4.278 14 5.663 14 8.646V14zM1.741 3.111h-.02C.676 3.111 0 2.426 0 1.557 0 .67.697 0 1.761 0S3.48.67 3.5 1.554c0 .87-.675 1.557-1.759 1.557zM.35 4.667h2.8V14H.35V4.667z" fill="#151515"/></svg><svg fill="none" viewBox="0 0 16 16" id="list-icon" xmlns="http://www.w3.org/2000/svg"><path d="M13.333 1.333H2.666c-.736 0-1.333.597-1.333 1.334v10.666c0 .737.597 1.334 1.333 1.334h10.667c.736 0 1.333-.597 1.333-1.334V2.667c0-.737-.597-1.334-1.333-1.334zM1.333 4.667h13.333M1.333 8h13.333M1.333 11.333h13.333" stroke="#A9A9A9" stroke-linecap="round" stroke-linejoin="round"/></svg><svg fill="none" viewBox="0 0 16 16" id="pinterest" xmlns="http://www.w3.org/2000/svg"><path fill-rule="evenodd" clip-rule="evenodd" d="M8 0a8 8 0 00-3.21 15.327c-.023-.558-.004-1.23.138-1.837l1.03-4.359s-.256-.51-.256-1.266c0-1.185.688-2.07 1.543-2.07.727 0 1.08.546 1.08 1.2 0 .732-.468 1.826-.707 2.84-.2.849.425 1.54 1.262 1.54 1.516 0 2.536-1.946 2.536-4.253 0-1.753-1.18-3.065-3.328-3.065-2.426 0-3.938 1.809-3.938 3.83 0 .698.205 1.189.527 1.569.148.176.168.245.114.447l-.162.641c-.054.203-.218.276-.4.2C3.11 10.29 2.59 9.065 2.59 7.689c0-2.272 1.916-4.998 5.717-4.998 3.055 0 5.065 2.212 5.065 4.583 0 3.139-1.744 5.483-4.317 5.483-.863 0-1.675-.466-1.954-.996 0 0-.465 1.843-.563 2.199-.169.616-.501 1.233-.805 1.713A8 8 0 0016 8 8 8 0 008 0z" fill="#151515"/></svg><svg fill="none" viewBox="0 0 14 14" id="plus" xmlns="http://www.w3.org/2000/svg"><path d="M12.16 7H1.495M6.828 12.333V1.667" stroke="#fff" stroke-width="2.5" stroke-linecap="round" stroke-linejoin="bevel"/></svg><svg fill="none" viewBox="0 0 12 10" id="red-heart" xmlns="http://www.w3.org/2000/svg"><path clip-rule="evenodd" d="M6.656 1.445a2.546 2.546 0 113.6 3.6L9.6 5.7 6 9.3 2.4 5.7l-.655-.655a2.546 2.546 0 013.6-3.6L6 2.1l.655-.655z" stroke="#E6704B" stroke-linecap="round" stroke-linejoin="bevel"/></svg><svg fill="none" viewBox="0 0 14 14" id="search" xmlns="http://www.w3.org/2000/svg"><path d="M8.193 10.433a4.667 4.667 0 100-9.333 4.667 4.667 0 000 9.333zM4.813 9.24l-3.126 3.127" stroke="#151515" stroke-width="1.5" stroke-linecap="round" stroke-linejoin="bevel"/></svg><svg fill="none" viewBox="0 0 10 6" id="search-arrow" xmlns="http://www.w3.org/2000/svg"><path d="M1.813 1.533l2.74 2.74a.667.667 0 00.94 0L8.16 1.607" stroke="#6A983C" stroke-width="2.5" stroke-linecap="round" stroke-linejoin="bevel"/></svg><svg fill="none" viewBox="0 0 32 32" id="security" xmlns="http://www.w3.org/2000/svg"><path d="M25.053 5.96a9.8 9.8 0 01-2.667-.213 9.947 9.947 0 01-2.92-1.587 19.873 19.873 0 01-2.133-1.747 1.533 1.533 0 00-2.093 0 24.1 24.1 0 01-2.054 1.72 10.36 10.36 0 01-2.933 1.627c-.997.225-2.02.306-3.04.24a22.96 22.96 0 01-2.493-.24 1.52 1.52 0 00-1.734 1.333c-.066.64-.24 2.307-.32 4.16-.112 1.852.005 3.71.347 5.534a17.332 17.332 0 005.133 7.8 42.783 42.783 0 006.16 4.826 3.533 3.533 0 004 0 42.504 42.504 0 005.814-4.893 17.733 17.733 0 004.84-7.68" stroke="#151515" stroke-width="2.5" stroke-linecap="round" stroke-linejoin="round"/><path d="M14.666 14.667l3.813 3.813a.253.253 0 00.374 0L29.333 8" stroke="#6A983C" stroke-width="2.5" stroke-linecap="round" stroke-linejoin="round"/></svg><svg fill="none" viewBox="0 0 10 16" id="slider-arrow-right" xmlns="http://www.w3.org/2000/svg"><path d="M2.066 14.373l5.48-5.48a1.333 1.333 0 000-1.88L2.213 1.68" stroke="#fff" stroke-width="2.5" stroke-linecap="round" stroke-linejoin="bevel"/></svg><svg fill="none" viewBox="0 0 10 16" id="slider-left-arrow" xmlns="http://www.w3.org/2000/svg"><path d="M7.933 1.627l-5.48 5.48a1.333 1.333 0 000 1.88l5.333 5.333" stroke="#fff" stroke-width="2.5" stroke-linecap="round" stroke-linejoin="bevel"/></svg><svg fill="none" viewBox="0 0 15 14" id="star-active" xmlns="http://www.w3.org/2000/svg"><path fill-rule="evenodd" clip-rule="evenodd" d="M6.948 1.127a.72.72 0 011.374 0l1.24 3.813h4a.727.727 0 01.426 1.333l-3.246 2.354 1.24 3.82a.72.72 0 01-1.114.806l-3.253-2.38-3.247 2.36a.72.72 0 01-1.113-.806l1.24-3.82-3.247-2.354a.727.727 0 01.427-1.333h4l1.273-3.793z" fill="#FDBC15"/></svg><svg fill="none" viewBox="0 0 18 16" id="star-black" xmlns="http://www.w3.org/2000/svg"><path fill-rule="evenodd" clip-rule="evenodd" d="M8.424.658a.9.9 0 011.717 0l1.55 4.767h5a.908.908 0 01.533 1.667l-4.058 2.941 1.55 4.775a.9.9 0 01-1.392 1.009l-4.067-2.975-4.058 2.95a.9.9 0 01-1.392-1.009l1.55-4.775L1.3 7.067A.908.908 0 011.832 5.4h5L8.424.658z" fill="#151515"/></svg><svg fill="none" viewBox="0 0 19 18" id="star-not-active" xmlns="http://www.w3.org/2000/svg"><path clip-rule="evenodd" d="M8.424 1.658a.9.9 0 011.717 0l1.55 4.767h5a.908.908 0 01.533 1.667l-4.058 2.941 1.55 4.775a.9.9 0 01-1.392 1.009l-4.067-2.975-4.058 2.95a.9.9 0 01-1.392-1.009l1.55-4.775L1.3 8.067A.908.908 0 011.832 6.4h5l1.592-4.742z" stroke="#EBEBEB" stroke-width="1.5" stroke-linecap="round" stroke-linejoin="round"/></svg><svg fill="none" viewBox="0 0 16 14" id="twitter" xmlns="http://www.w3.org/2000/svg"><path fill-rule="evenodd" clip-rule="evenodd" d="M16 1.912a6.412 6.412 0 01-1.885.53A3.359 3.359 0 0015.56.58a6.465 6.465 0 01-2.086.816A3.237 3.237 0 0011.077.333C9.265.333 7.796 1.841 7.796 3.7c0 .264.028.52.084.767-2.728-.14-5.146-1.48-6.766-3.518A3.427 3.427 0 00.67 2.642c0 1.167.579 2.197 1.46 2.801a3.223 3.223 0 01-1.488-.42v.042c0 1.631 1.132 2.992 2.635 3.3a3.189 3.189 0 01-1.483.059c.418 1.337 1.63 2.31 3.066 2.336A6.481 6.481 0 010 12.156a9.14 9.14 0 005.032 1.51c6.038 0 9.34-5.127 9.34-9.576 0-.146-.003-.293-.009-.436A6.738 6.738 0 0016 1.912z" fill="#151515"/></svg></svg>